<?xml version="1.0" standalone="no"?>
<!DOCTYPE svg PUBLIC "-//W3C//DTD SVG 20010904//EN"
 "http://www.w3.org/TR/2001/REC-SVG-20010904/DTD/svg10.dtd">
<svg version="1.0" xmlns="http://www.w3.org/2000/svg"
 width="216.000000pt" height="248.000000pt" viewBox="0 0 216.000000 248.000000"
 preserveAspectRatio="xMidYMid meet">

<g transform="translate(0.000000,248.000000) scale(0.100000,-0.100000)"
fill="#000000" stroke="none">
<path d="M1026 2404 c-33 -8 -85 -26 -115 -41 -68 -33 -176 -139 -212 -208
-24 -46 -33 -54 -126 -100 -122 -61 -177 -102 -269 -197 -141 -147 -218 -302
-244 -491 -6 -47 -10 -315 -10 -672 l0 -594 22 -21 c20 -18 35 -20 179 -20
135 0 160 2 177 18 19 16 21 32 27 277 9 305 15 334 95 415 118 117 289 118
408 2 66 -64 89 -118 102 -232 28 -251 132 -394 338 -462 84 -28 242 -25 326
6 153 55 259 162 312 315 42 119 44 160 44 842 0 620 -1 660 -20 733 -28 111
-73 190 -155 271 -81 82 -160 127 -272 155 -67 17 -111 20 -313 19 -168 0
-252 -5 -294 -15z m698 -558 c61 -25 71 -115 19 -156 -39 -31 -89 -26 -124 11
-46 49 -35 114 26 147 27 15 39 15 79 -2z m-732 -339 c77 -43 144 -64 267 -83
148 -22 311 -116 383 -219 85 -122 101 -207 96 -499 -3 -187 -5 -216 -23 -250
-26 -51 -62 -77 -116 -83 -53 -6 -101 22 -133 77 -20 33 -21 55 -26 392 -5
340 -6 358 -26 384 -34 46 -66 64 -134 75 -163 27 -217 40 -275 67 -111 52
-186 139 -204 235 -4 26 -6 49 -3 51 3 3 33 -21 68 -54 35 -32 92 -74 126 -93z"/>
</g>
</svg>
